<mxfile host="app.diagrams.net" agent="Mozilla/5.0 (Windows NT 10.0; Win64; x64) AppleWebKit/537.36 (KHTML, like Gecko) Chrome/127.0.0.0 Safari/537.36 OPR/113.0.0.0" version="24.8.4">
  <diagram name="Page-1" id="cAq9K8D-SSRc82h--sjC">
    <mxGraphModel dx="1620" dy="786" grid="1" gridSize="10" guides="1" tooltips="1" connect="1" arrows="1" fold="1" page="1" pageScale="1" pageWidth="827" pageHeight="1169" math="0" shadow="0">
      <root>
        <mxCell id="0" />
        <mxCell id="1" parent="0" />
        <mxCell id="QJpqInsckpjDwegMEHxY-7" style="edgeStyle=orthogonalEdgeStyle;rounded=0;orthogonalLoop=1;jettySize=auto;html=1;entryX=0.5;entryY=0;entryDx=0;entryDy=0;" edge="1" parent="1" source="QJpqInsckpjDwegMEHxY-1" target="QJpqInsckpjDwegMEHxY-2">
          <mxGeometry relative="1" as="geometry" />
        </mxCell>
        <mxCell id="QJpqInsckpjDwegMEHxY-1" value="INIT" style="ellipse;whiteSpace=wrap;html=1;aspect=fixed;" vertex="1" parent="1">
          <mxGeometry x="334" y="120" width="80" height="80" as="geometry" />
        </mxCell>
        <mxCell id="QJpqInsckpjDwegMEHxY-8" style="edgeStyle=orthogonalEdgeStyle;rounded=0;orthogonalLoop=1;jettySize=auto;html=1;entryX=0.5;entryY=0;entryDx=0;entryDy=0;" edge="1" parent="1" source="QJpqInsckpjDwegMEHxY-2" target="QJpqInsckpjDwegMEHxY-3">
          <mxGeometry relative="1" as="geometry" />
        </mxCell>
        <mxCell id="QJpqInsckpjDwegMEHxY-2" value="IDLE" style="ellipse;whiteSpace=wrap;html=1;aspect=fixed;" vertex="1" parent="1">
          <mxGeometry x="334" y="260" width="80" height="80" as="geometry" />
        </mxCell>
        <mxCell id="QJpqInsckpjDwegMEHxY-9" style="edgeStyle=orthogonalEdgeStyle;rounded=0;orthogonalLoop=1;jettySize=auto;html=1;entryX=0.5;entryY=0;entryDx=0;entryDy=0;" edge="1" parent="1" source="QJpqInsckpjDwegMEHxY-3" target="QJpqInsckpjDwegMEHxY-4">
          <mxGeometry relative="1" as="geometry" />
        </mxCell>
        <mxCell id="QJpqInsckpjDwegMEHxY-3" value="AVERAGE&amp;nbsp;&lt;div&gt;START&lt;/div&gt;" style="ellipse;whiteSpace=wrap;html=1;aspect=fixed;" vertex="1" parent="1">
          <mxGeometry x="334" y="390" width="80" height="80" as="geometry" />
        </mxCell>
        <mxCell id="QJpqInsckpjDwegMEHxY-6" style="edgeStyle=orthogonalEdgeStyle;rounded=0;orthogonalLoop=1;jettySize=auto;html=1;entryX=0.5;entryY=0;entryDx=0;entryDy=0;" edge="1" parent="1" source="QJpqInsckpjDwegMEHxY-4" target="QJpqInsckpjDwegMEHxY-5">
          <mxGeometry relative="1" as="geometry" />
        </mxCell>
        <mxCell id="QJpqInsckpjDwegMEHxY-4" value="&lt;font style=&quot;font-size: 11px;&quot;&gt;AVERAGE&lt;/font&gt;&lt;div&gt;&lt;font style=&quot;font-size: 11px;&quot;&gt;PROCESSING&lt;/font&gt;&lt;/div&gt;" style="ellipse;whiteSpace=wrap;html=1;aspect=fixed;" vertex="1" parent="1">
          <mxGeometry x="334" y="520" width="80" height="80" as="geometry" />
        </mxCell>
        <mxCell id="QJpqInsckpjDwegMEHxY-10" style="edgeStyle=orthogonalEdgeStyle;rounded=0;orthogonalLoop=1;jettySize=auto;html=1;entryX=0.5;entryY=0;entryDx=0;entryDy=0;exitX=0.5;exitY=1;exitDx=0;exitDy=0;" edge="1" parent="1" source="QJpqInsckpjDwegMEHxY-5" target="QJpqInsckpjDwegMEHxY-1">
          <mxGeometry relative="1" as="geometry">
            <mxPoint x="374" y="70" as="targetPoint" />
            <Array as="points">
              <mxPoint x="374" y="790" />
              <mxPoint x="201" y="790" />
              <mxPoint x="201" y="70" />
              <mxPoint x="374" y="70" />
            </Array>
          </mxGeometry>
        </mxCell>
        <mxCell id="QJpqInsckpjDwegMEHxY-5" value="AVERAGE&lt;div&gt;STOP&lt;/div&gt;" style="ellipse;whiteSpace=wrap;html=1;aspect=fixed;" vertex="1" parent="1">
          <mxGeometry x="334" y="650" width="80" height="80" as="geometry" />
        </mxCell>
        <mxCell id="QJpqInsckpjDwegMEHxY-11" value="" style="endArrow=none;html=1;rounded=0;" edge="1" parent="1">
          <mxGeometry width="50" height="50" relative="1" as="geometry">
            <mxPoint x="364" y="230" as="sourcePoint" />
            <mxPoint x="384" y="230" as="targetPoint" />
            <Array as="points">
              <mxPoint x="374" y="230" />
            </Array>
          </mxGeometry>
        </mxCell>
        <mxCell id="QJpqInsckpjDwegMEHxY-12" value="" style="endArrow=none;html=1;rounded=0;" edge="1" parent="1">
          <mxGeometry width="50" height="50" relative="1" as="geometry">
            <mxPoint x="364" y="360" as="sourcePoint" />
            <mxPoint x="384" y="360" as="targetPoint" />
            <Array as="points">
              <mxPoint x="374" y="360" />
            </Array>
          </mxGeometry>
        </mxCell>
        <mxCell id="QJpqInsckpjDwegMEHxY-13" value="" style="endArrow=none;html=1;rounded=0;" edge="1" parent="1">
          <mxGeometry width="50" height="50" relative="1" as="geometry">
            <mxPoint x="364" y="490" as="sourcePoint" />
            <mxPoint x="384" y="490" as="targetPoint" />
            <Array as="points">
              <mxPoint x="374" y="490" />
            </Array>
          </mxGeometry>
        </mxCell>
        <mxCell id="QJpqInsckpjDwegMEHxY-14" value="" style="endArrow=none;html=1;rounded=0;" edge="1" parent="1">
          <mxGeometry width="50" height="50" relative="1" as="geometry">
            <mxPoint x="364" y="620" as="sourcePoint" />
            <mxPoint x="384" y="620" as="targetPoint" />
            <Array as="points">
              <mxPoint x="374" y="620" />
            </Array>
          </mxGeometry>
        </mxCell>
        <mxCell id="QJpqInsckpjDwegMEHxY-15" value="" style="endArrow=none;html=1;rounded=0;" edge="1" parent="1">
          <mxGeometry width="50" height="50" relative="1" as="geometry">
            <mxPoint x="364" y="760" as="sourcePoint" />
            <mxPoint x="384" y="760" as="targetPoint" />
            <Array as="points">
              <mxPoint x="374" y="760" />
            </Array>
          </mxGeometry>
        </mxCell>
        <mxCell id="QJpqInsckpjDwegMEHxY-17" value="FIFOs prêtes" style="text;html=1;align=center;verticalAlign=middle;whiteSpace=wrap;rounded=0;" vertex="1" parent="1">
          <mxGeometry x="380" y="220" width="100" height="20" as="geometry" />
        </mxCell>
        <mxCell id="QJpqInsckpjDwegMEHxY-18" value="Début de la lecture de l&#39;image (DATA_IN_VALID =&amp;nbsp; 1)" style="text;html=1;align=center;verticalAlign=middle;whiteSpace=wrap;rounded=0;" vertex="1" parent="1">
          <mxGeometry x="380" y="350" width="180" height="20" as="geometry" />
        </mxCell>
        <mxCell id="QJpqInsckpjDwegMEHxY-19" value="Premier pixel de l&#39;image filtrée est calculé" style="text;html=1;align=center;verticalAlign=middle;whiteSpace=wrap;rounded=0;" vertex="1" parent="1">
          <mxGeometry x="390" y="480" width="150" height="20" as="geometry" />
        </mxCell>
        <mxCell id="QJpqInsckpjDwegMEHxY-20" value="Lecture du dernier pixel de l&#39;image initiale" style="text;html=1;align=center;verticalAlign=middle;whiteSpace=wrap;rounded=0;" vertex="1" parent="1">
          <mxGeometry x="390" y="610" width="140" height="20" as="geometry" />
        </mxCell>
        <mxCell id="QJpqInsckpjDwegMEHxY-21" value="Dernier pixel de l&#39;image filtrée est calculé" style="text;html=1;align=center;verticalAlign=middle;whiteSpace=wrap;rounded=0;" vertex="1" parent="1">
          <mxGeometry x="390" y="750" width="140" height="20" as="geometry" />
        </mxCell>
      </root>
    </mxGraphModel>
  </diagram>
</mxfile>
